# xmcd CD database file
#
# Track frame offsets:
#	150
#	17705
#	31489
#	59441
#	77741
#	95193
#	110355
#	127118
#	152003
#	168890
#	187891
#	202106
#
# Disc length: 2770 seconds
#
# Revision: 2
# Processed by: cddbd v1.5.2PL0 Copyright (c) Steve Scherf et al.
# Submitted via: CDex 1.51
#
DISCID=9f0ad00c
DTITLE=Gotthard - Gotthard
DYEAR=1900
DGENRE=Hard Rock
TTITLE0=Standing In The Light
TTITLE1=Downtown
TTITLE2=Firedance
TTITLE3=Hush
TTITLE4=Mean Street Rocket
TTITLE5=Get Down
TTITLE6=Take Me
TTITLE7=Angel
TTITLE8=Lonely Heartache
TTITLE9=Hunter
TTITLE10=All I Care For
TTITLE11="That's It"
EXTD=
EXTT0=
EXTT1=
EXTT2=
EXTT3=
EXTT4=
EXTT5=
EXTT6=
EXTT7=
EXTT8=
EXTT9=
EXTT10=
EXTT11=
PLAYORDER=
